<?xml version="1.0" encoding="UTF-8"?>
<svg version="1.1" xmlns="http://www.w3.org/2000/svg" width="334" height="335">
<path d="M0 0 C21.47980607 18.81237917 37.87298392 42.70910707 47.375 69.6875 C47.375 70.6775 47.375 71.6675 47.375 72.6875 C48.035 73.0175 48.695 73.3475 49.375 73.6875 C50.13052793 76.15290693 50.75491425 78.55059281 51.3125 81.0625 C51.48362305 81.83142578 51.65474609 82.60035156 51.83105469 83.39257812 C52.35913464 85.82154924 52.86712393 88.25423564 53.375 90.6875 C53.53178223 91.39165039 53.68856445 92.09580078 53.85009766 92.82128906 C60.23757586 122.03898461 57.61394862 154.7249912 47.375 182.6875 C46.71371094 184.52441406 46.71371094 184.52441406 46.0390625 186.3984375 C30.19475978 228.15386511 -1.97186811 261.68561597 -42.65209961 279.99023438 C-84.38500613 297.93837843 -131.06462994 298.63231235 -173.37402344 282.17602539 C-193.62478705 273.95060613 -211.58736444 262.40365714 -227.20214844 247.07519531 C-228.5232573 245.78672881 -229.87383671 244.52866954 -231.2265625 243.2734375 C-257.82288486 218.02803945 -276.43208602 178.18141224 -277.83007812 141.37744141 C-277.93310589 137.40477767 -277.95134028 133.43405128 -277.94067383 129.46020508 C-277.93752649 127.02053524 -277.96102139 124.58209816 -277.98632812 122.14257812 C-278.04657279 107.42211742 -276.071533 93.19438985 -271.875 79.0625 C-271.49093994 77.75031494 -271.49093994 77.75031494 -271.09912109 76.41162109 C-268.60745693 68.17666354 -265.41950808 60.40066365 -261.625 52.6875 C-261.31836426 52.05650391 -261.01172852 51.42550781 -260.69580078 50.77539062 C-253.17377054 35.47396674 -243.0152629 20.45824975 -230.625 8.6875 C-230.10035156 8.130625 -229.57570312 7.57375 -229.03515625 7 C-171.17662874 -53.67194428 -69.95348676 -56.58006258 0 0 Z " fill="#4072B7" transform="translate(277.625,41.3125)"/>
<path d="M0 0 C2.875 1.3125 2.875 1.3125 5 4 C6.51063672 12.75029197 4.31866553 20.98516921 -0.6875 28.1875 C-5.50866269 34.17815265 -11.6361635 38.70634601 -19 41 C-22.27621584 41.31502075 -25.55086862 41.50690636 -28.8359375 41.70703125 C-34.54576819 42.23571928 -38.49135721 43.41776487 -42.5625 47.6875 C-44.36998169 51.85256649 -44.53976111 54.72386342 -43 59 C-40.4300486 62.1786241 -38.87815673 63.70728109 -35 65 C-33.35912211 65.11492784 -31.7142222 65.17632354 -30.06958008 65.20532227 C-28.56836357 65.2352401 -28.56836357 65.2352401 -27.03681946 65.26576233 C-25.95861435 65.28247482 -24.88040924 65.29918732 -23.76953125 65.31640625 C-22.11119514 65.3475779 -22.11119514 65.3475779 -20.4193573 65.37937927 C-16.8838021 65.44482332 -13.34817194 65.50373603 -9.8125 65.5625 C-7.41730992 65.6056901 -5.02212745 65.64930454 -2.62695312 65.69335938 C3.24861842 65.80049948 9.12426472 65.90227557 15 66 C15.25394531 66.87390381 15.50789063 67.74780762 15.76953125 68.64819336 C16.11371094 69.80456299 16.45789063 70.96093262 16.8125 72.15234375 C17.14894531 73.29437256 17.48539062 74.43640137 17.83203125 75.61303711 C19.84581749 81.45276465 22.76706549 86.80295194 27.1875 91.15234375 C29 93 29 93 29 95 C29.54527344 95.25910156 30.09054688 95.51820313 30.65234375 95.78515625 C33.38375369 97.19858136 35.9477598 98.81851971 38.5625 100.4375 C52.10081121 108.28579636 64.7170968 107.69810036 80 106 C80 126.13 80 146.26 80 167 C71.75 167 63.5 167 55 167 C55 153.14 55 139.28 55 125 C49.72 125 44.44 125 39 125 C39 138.86 39 152.72 39 167 C30.75 167 22.5 167 14 167 C14 152.81 14 138.62 14 124 C5.75 124 -2.5 124 -11 124 C-11 138.19 -11 152.38 -11 167 C-19.25 167 -27.5 167 -36 167 C-36 138.95 -36 110.9 -36 82 C-39.465 81.505 -39.465 81.505 -43 81 C-50.84724187 76.6871727 -56.46341899 71.31474117 -60.3125 63.25 C-62.19941259 54.33004957 -61.34071549 46.08059747 -57 38 C-52.44115439 31.83400376 -46.3611482 27.2330463 -39 25 C-35.16480619 24.6022762 -31.35566817 24.4367002 -27.50390625 24.27734375 C-22.93681083 23.91584567 -19.39297738 23.19184728 -16 20 C-13.30908105 15.9082203 -12.1186867 12.03426979 -11.5625 7.1875 C-11 4 -11 4 -8.8125 1.5625 C-5.45611204 -0.30215998 -3.7822566 -0.6303761 0 0 Z " fill="#040506" transform="translate(152,81)"/>
<path d="M0 0 C3.9466859 3.23024752 7.48302906 6.28117244 10.42578125 10.48828125 C16.25288206 17.9563034 21.65982206 23.9962769 31.41636658 25.20372009 C40.59658994 25.95813586 49.82135703 25.62750495 59 25 C59.2371875 24.43829102 59.474375 23.87658203 59.71875 23.29785156 C61.29319357 20.47417342 63.21684545 18.52385158 65.5 16.234375 C66.386875 15.34492187 67.27375 14.45546875 68.1875 13.5390625 C69.115625 12.61867188 70.04375 11.69828125 71 10.75 C71.928125 9.81414062 72.85625 8.87828125 73.8125 7.9140625 C75.1428125 6.58761719 75.1428125 6.58761719 76.5 5.234375 C77.3146875 4.42194336 78.129375 3.60951172 78.96875 2.77246094 C81 1 81 1 83 1 C83.09307671 9.56295212 83.16395435 18.12568947 83.20724869 26.68902397 C83.22803801 30.66623807 83.25619481 34.64310362 83.30175781 38.62011719 C83.34552794 42.46512353 83.36920204 46.30979667 83.37950897 50.15503311 C83.38684494 51.61493289 83.40116906 53.07481643 83.42292023 54.5345726 C83.62881061 68.93768735 80.27488837 78.22662438 70.37890625 88.71875 C60.92049479 97.61011041 49.69756786 99.4092538 37.2734375 99.20703125 C25.98308936 98.80503764 19.38966527 93.8996957 11.25 86.5 C1.27792393 75.41991548 -0.61758734 64.25608646 -0.390625 49.609375 C-0.3831433 48.16921788 -0.37745952 46.72905043 -0.37347412 45.28887939 C-0.35836896 41.54045353 -0.31922318 37.7926705 -0.2746582 34.04449463 C-0.23337412 30.20292857 -0.21539318 26.36125629 -0.1953125 22.51953125 C-0.1527096 15.01273116 -0.08464846 7.50645643 0 0 Z " fill="#030305" transform="translate(174,81)"/>
<path d="M0 0 C2.84520476 1.70712285 3.02560178 3.08480591 4 6.3125 C4 10 4 10 2 13.4375 C-1 16 -1 16 -4.5625 16.625 C-8.45111572 15.91797896 -9.63470046 15.09308401 -12 12 C-13.462958 9.074084 -13.44523109 7.24382653 -13 4 C-8.82319948 -0.78803962 -6.3628125 -1.92084906 0 0 Z " fill="#3F6DAE" transform="translate(237,123)"/>
<path d="M0 0 C2.83333391 2.37634457 2.97885738 3.80266883 3.375 7.5 C2.81662592 12.71149144 2.81662592 12.71149144 0 15 C-2.73525927 15.96503736 -5.11115485 16.32035831 -8 16 C-11 14 -11 14 -13 11 C-13.5625 7.4375 -13.5625 7.4375 -13 4 C-8.99828585 -1.06883792 -6.21426986 -1.41728962 0 0 Z " fill="#3F6FB1" transform="translate(204,123)"/>
<path d="" fill="#FFFFFF" transform="translate(0,0)"/>
<path d="" fill="#FFFFFF" transform="translate(0,0)"/>
<path d="" fill="#FFFFFF" transform="translate(0,0)"/>
<path d="" fill="#FFFFFF" transform="translate(0,0)"/>
<path d="" fill="#FFFFFF" transform="translate(0,0)"/>
<path d="" fill="#FFFFFF" transform="translate(0,0)"/>
<path d="" fill="#FFFFFF" transform="translate(0,0)"/>
</svg>
